<svg xmlns="http://www.w3.org/2000/svg" version="1.1" xmlns:xlink="http://www.w3.org/1999/xlink" xmlns:svgjs="http://svgjs.dev/svgjs" width="128" height="128" viewBox="0 0 128 128"><g transform="matrix(0.8046875,0,0,0.8046875,12.333870967741937,15.68431944260174)"><svg viewBox="0 0 155 146" data-background-color="#ef86c1" preserveAspectRatio="xMidYMid meet" height="120" width="128" xmlns="http://www.w3.org/2000/svg" xmlns:xlink="http://www.w3.org/1999/xlink"><g id="tight-bounds" transform="matrix(1,0,0,1,0.25,0.052058111380148375)"><svg viewBox="0 0 154.5 145.8958837772397" height="145.8958837772397" width="154.5"><g><svg viewBox="0 0 154.5 145.8958837772397" height="145.8958837772397" width="154.5"><g><svg viewBox="0 0 154.5 145.8958837772397" height="145.8958837772397" width="154.5"><g id="textblocktransform"><svg viewBox="0 0 154.5 145.8958837772397" height="145.8958837772397" width="154.5" id="textblock"><g><svg viewBox="0 0 154.5 145.8958837772397" height="145.8958837772397" width="154.5"><g transform="matrix(1,0,0,1,0,0)"><svg width="154.5" viewBox="-0.5 -38 41.3 39" height="145.8958837772397" data-palette-color="#ffffff"><path d="M3.9 1Q2.3 1 1.23-0.15 0.15-1.3 0.15-2.95L0.15-2.95Q0.15-3.7 1-5.3L1-5.3Q1.75-6.6 1.75-7.2L1.75-7.2Q1.75-8.3-0.5-8.3L-0.5-8.3-0.5-8.9Q1.05-8.9 2.48-7.98 3.9-7.05 3.9-5.35L3.9-5.35Q3.9-4.7 3.5-3L3.5-3Q3.1-1.5 3.1-0.85L3.1-0.85Q3.1 0.45 4.45 0.45L4.45 0.45Q5.85 0.45 6.5-0.9 7.15-2.25 7.15-5.6L7.15-5.6 7.15-10.7 6.95-34Q6.95-35 6.43-35.52 5.9-36.05 4.95-36.05L4.95-36.05Q4.2-36.05 3.2-35.75L3.2-35.75 3.2-37 14.45-37 14.45-35.75Q13.45-36.05 12.7-36.05L12.7-36.05Q11.75-36.05 11.23-35.52 10.7-35 10.7-34L10.7-34 10.9-11.5 10.9-5.6Q10.9-3.4 9.83-1.93 8.75-0.45 7.13 0.28 5.5 1 3.9 1L3.9 1ZM30.35 1Q26.7 1 24.52-0.23 22.35-1.45 20.75-3.9L20.75-3.9 20.05-0.95 19.05-0.95 19.05-14.55 20.4-14.55Q20.4-7.75 22.77-3.8 25.15 0.15 29.85 0.15L29.85 0.15Q32.05 0.15 33.7-1.07 35.35-2.3 36.2-4.3 37.05-6.3 37.05-8.55L37.05-8.55Q37.05-11.3 35.82-13.13 34.6-14.95 32.8-16 31-17.05 28.05-18.3L28.05-18.3Q25-19.6 23.2-20.68 21.4-21.75 20.17-23.58 18.95-25.4 18.95-28.2L18.95-28.2Q18.95-31 20.27-33.25 21.6-35.5 23.87-36.75 26.15-38 29-38L29-38Q30.75-38 32.47-37.4 34.2-36.8 35.4-35.88 36.6-34.95 36.85-34.05L36.85-34.05 37.4-37.9 38.35-37.9 38.35-27.95 37.2-27.95Q37.2-30.2 36.4-32.25 35.6-34.3 33.92-35.6 32.25-36.9 29.8-36.9L29.8-36.9Q26.65-36.9 24.67-34.8 22.7-32.7 22.7-28.95L22.7-28.95Q22.7-26.8 23.8-25.33 24.9-23.85 26.52-22.9 28.15-21.95 30.9-20.7L30.9-20.7Q34.1-19.25 36.07-18.03 38.05-16.8 39.42-14.73 40.8-12.65 40.8-9.55L40.8-9.55Q40.8-7.05 39.35-4.58 37.9-2.1 35.5-0.55 33.1 1 30.35 1L30.35 1Z" opacity="1" transform="matrix(1,0,0,1,0,0)" fill="#000000" class="wordmark-text-0" data-fill-palette-color="primary" id="text-0"></path></svg></g></svg></g></svg></g></svg></g></svg></g><defs></defs></svg><rect width="154.5" height="145.8958837772397" fill="none" stroke="none" visibility="hidden"></rect></g></svg></g></svg>